<svg id="Layer_1" data-name="Layer 1" xmlns="http://www.w3.org/2000/svg" xmlns:xlink="http://www.w3.org/1999/xlink" viewBox="0 0 1477.11 1477.1"><defs><style>.cls-1{fill:url(#New_Gradient_Swatch_1);}.cls-2{fill:#fff;}</style><linearGradient id="New_Gradient_Swatch_1" x1="368.54" y1="368.53" x2="1631.47" y2="1631.46" gradientUnits="userSpaceOnUse"><stop offset="0" stop-color="#1bcedf"/><stop offset="0.2" stop-color="#2ca2c5"/><stop offset="0.46" stop-color="#406ca5"/><stop offset="0.7" stop-color="#4f458e"/><stop offset="0.88" stop-color="#582d7f"/><stop offset="0.99" stop-color="#5b247a"/></linearGradient></defs><title>logo</title><path class="cls-1" d="M1738.55,626v748c0,5.31-.1,10.59-.34,15.83a360.65,360.65,0,0,1-19.09,101.33c-49.07,143.5-185.55,247.4-345.12,247.4H626c-109.51,0-208.13-48.93-275.1-126a362.89,362.89,0,0,1-89.11-222.71c-.24-5.25-.34-10.52-.34-15.83V626c0-200.5,164.05-364.54,364.55-364.54h748a364.74,364.74,0,0,1,55.43,4.24c123.34,19,226.8,100.44,276.83,210.73A361.05,361.05,0,0,1,1738.55,626Z" transform="translate(-261.45 -261.45)"/><path class="cls-2" d="M1151.86,562.46A84.09,84.09,0,0,1,1126.22,623l-119.05,119L888.52,623.41l-.4-.4a84.19,84.19,0,1,1,119-119,84.14,84.14,0,0,1,144.69,58.5Z" transform="translate(-261.45 -261.45)"/><path class="cls-2" d="M1316.18,1177,982.44,1510.76a37.7,37.7,0,0,1-53,.27L682.71,1264.18a33.54,33.54,0,0,1,0-47.6l34.47-34.47a33.7,33.7,0,0,1,38.4-6.51c3.31,1.56,135.3,132.6,135.3,132.6l19.43-19.42L764.5,1143a33.68,33.68,0,0,1,0-47.61L799,1061a33.65,33.65,0,0,1,47.68,0L992.39,1206.7l19.88-19.81L837.68,1012.3a33.68,33.68,0,0,1,0-47.61l34.47-34.47a33.76,33.76,0,0,1,47.68,0l174.52,174.52,19.61-19.61L787.54,758.78a33.68,33.68,0,0,1,0-47.61L822,676.7a33.55,33.55,0,0,1,47.61,0l446.56,447.16A37.57,37.57,0,0,1,1316.18,1177Z" transform="translate(-261.45 -261.45)"/><path class="cls-2" d="M1028.5,798.27l109.07-109.06a29.6,29.6,0,0,1,41.88,0l33.66,33.66a29.57,29.57,0,0,1,1.85,39.85c-33.19,39.91-98.2,127.95-60.71,165.44Z" transform="translate(-261.45 -261.45)"/></svg>